<svg xmlns="http://www.w3.org/2000/svg" width="40" height="40" viewBox="0 0 40 40">
  <g id="组_328" data-name="组 328" transform="translate(1940 -1048)">
    <rect id="矩形_87" data-name="矩形 87" width="40" height="40" transform="translate(-1940 1048)" fill="#fff"/>
    <g id="组_11" data-name="组 11" transform="translate(-2518 -28)">
      <rect id="矩形_1" data-name="矩形 1" width="6" height="2" rx="1" transform="translate(587 1088)" fill="#bbb"/>
      <rect id="矩形_6" data-name="矩形 6" width="6" height="2" rx="1" transform="translate(587 1093)" fill="#bbb"/>
      <rect id="矩形_9" data-name="矩形 9" width="6" height="2" rx="1" transform="translate(587 1098)" fill="#bbb"/>
      <rect id="矩形_2" data-name="矩形 2" width="6" height="2" rx="1" transform="translate(595 1088)" fill="#bbb"/>
      <rect id="矩形_5" data-name="矩形 5" width="6" height="2" rx="1" transform="translate(595 1093)" fill="#bbb"/>
      <rect id="矩形_8" data-name="矩形 8" width="6" height="2" rx="1" transform="translate(595 1098)" fill="#bbb"/>
      <rect id="矩形_11" data-name="矩形 11" width="6" height="2" rx="1" transform="translate(595 1103)" fill="#bbb"/>
      <rect id="矩形_3" data-name="矩形 3" width="6" height="2" rx="1" transform="translate(603 1088)" fill="#bbb"/>
      <rect id="矩形_4" data-name="矩形 4" width="6" height="2" rx="1" transform="translate(603 1093)" fill="#bbb"/>
      <rect id="矩形_7" data-name="矩形 7" width="6" height="2" rx="1" transform="translate(603 1098)" fill="#bbb"/>
    </g>
  </g>
</svg>
