<svg xmlns="http://www.w3.org/2000/svg" width="28" height="20" viewBox="0 0 28 20">
  <defs>
    <style>
      .cls-1 {
        fill: #bbb;
      }
    </style>
  </defs>
  <g id="退格_1_" data-name="退格 (1)" transform="translate(-101.094 -231.188)">
    <path id="路径_4" data-name="路径 4" class="cls-1" d="M461.825,414.469a.96.96,0,0,1-.679-1.639l5.816-5.816a.96.96,0,1,1,1.358,1.358l-5.816,5.816a.958.958,0,0,1-.679.281Z" transform="translate(-347.178 -169.413)"/>
    <path id="路径_5" data-name="路径 5" class="cls-1" d="M467.638,414.466a.957.957,0,0,1-.679-.281l-5.816-5.816a.96.96,0,1,1,1.358-1.358l5.816,5.816a.96.96,0,0,1-.679,1.639Z" transform="translate(-347.175 -169.41)"/>
    <path id="路径_6" data-name="路径 6" class="cls-1" d="M126.057,251.188H110.146a3.07,3.07,0,0,1-2.367-1.112l-6.163-7.433a2.323,2.323,0,0,1-.522-1.455,2.266,2.266,0,0,1,.435-1.352c.011-.015.022-.029.034-.043l6.2-7.478a3.066,3.066,0,0,1,2.379-1.126h15.912a3.046,3.046,0,0,1,3.037,3.049v13.9A3.046,3.046,0,0,1,126.057,251.188Zm-23.048-10.232a.4.4,0,0,0-.062.232.449.449,0,0,0,.1.275l6.153,7.421a1.24,1.24,0,0,0,.944.443h15.912a1.187,1.187,0,0,0,1.184-1.188v-13.9a1.187,1.187,0,0,0-1.184-1.188H110.146a1.242,1.242,0,0,0-.951.452Z" transform="translate(0 0)"/>
  </g>
</svg>
