<svg xmlns="http://www.w3.org/2000/svg" xmlns:xlink="http://www.w3.org/1999/xlink" width="78" height="78" viewBox="0 0 78 78">
  <defs>
    <filter id="椭圆_1" x="0" y="0" width="78" height="78" filterUnits="userSpaceOnUse">
      <feOffset dy="3" input="SourceAlpha"/>
      <feGaussianBlur stdDeviation="3" result="blur"/>
      <feFlood flood-color="#c4efcc"/>
      <feComposite operator="in" in2="blur"/>
      <feComposite in="SourceGraphic"/>
    </filter>
  </defs>
  <g id="组_54" data-name="组 54" transform="translate(-149 -541)">
    <g transform="matrix(1, 0, 0, 1, 149, 541)" filter="url(#椭圆_1)">
      <circle id="椭圆_1-2" data-name="椭圆 1" cx="30" cy="30" r="30" transform="translate(9 6)" fill="#69d46f"/>
    </g>
    <g id="组_11" data-name="组 11" transform="translate(177 569)">
      <rect id="矩形_1" data-name="矩形 1" width="6" height="2" rx="1" transform="translate(0 15)" fill="#fff"/>
      <rect id="矩形_6" data-name="矩形 6" width="6" height="2" rx="1" transform="translate(0 10)" fill="#fff"/>
      <rect id="矩形_9" data-name="矩形 9" width="6" height="2" rx="1" transform="translate(0 5)" fill="#fff"/>
      <rect id="矩形_2" data-name="矩形 2" width="6" height="2" rx="1" transform="translate(8 15)" fill="#fff"/>
      <rect id="矩形_5" data-name="矩形 5" width="6" height="2" rx="1" transform="translate(8 10)" fill="#fff"/>
      <rect id="矩形_8" data-name="矩形 8" width="6" height="2" rx="1" transform="translate(8 5)" fill="#fff"/>
      <rect id="矩形_11" data-name="矩形 11" width="6" height="2" rx="1" transform="translate(8)" fill="#fff"/>
      <rect id="矩形_3" data-name="矩形 3" width="6" height="2" rx="1" transform="translate(16 15)" fill="#fff"/>
      <rect id="矩形_4" data-name="矩形 4" width="6" height="2" rx="1" transform="translate(16 10)" fill="#fff"/>
      <rect id="矩形_7" data-name="矩形 7" width="6" height="2" rx="1" transform="translate(16 5)" fill="#fff"/>
    </g>
  </g>
</svg>
