<svg xmlns="http://www.w3.org/2000/svg" xmlns:xlink="http://www.w3.org/1999/xlink" width="78" height="78" viewBox="0 0 78 78">
  <defs>
    <linearGradient id="linear-gradient" x1="0.5" x2="0.5" y2="0.993" gradientUnits="objectBoundingBox">
      <stop offset="0" stop-color="#54b6ff"/>
      <stop offset="1" stop-color="#3fa7ff"/>
    </linearGradient>
    <filter id="Rectangle_3" x="0" y="0" width="78" height="78" filterUnits="userSpaceOnUse">
      <feOffset dy="3" input="SourceAlpha"/>
      <feGaussianBlur stdDeviation="3" result="blur"/>
      <feFlood flood-color="#2ea4f3" flood-opacity="0.161"/>
      <feComposite operator="in" in2="blur"/>
      <feComposite in="SourceGraphic"/>
    </filter>
  </defs>
  <g id="组_55" data-name="组 55" transform="translate(-226 -541)">
    <g transform="matrix(1, 0, 0, 1, 226, 541)" filter="url(#Rectangle_3)">
      <rect id="Rectangle_3-2" data-name="Rectangle 3" width="60" height="60" rx="30" transform="translate(9 6)" fill="url(#linear-gradient)"/>
    </g>
    <g id="组_52" data-name="组 52" transform="translate(1838.5 -968.942)">
      <path id="Fill_1" data-name="Fill 1" d="M21.57,25.942h-5.08V23.627h5.08a2.264,2.264,0,0,0,2.2-2.317V16.5h2.2V21.31A4.527,4.527,0,0,1,21.57,25.942Zm-11.552,0H4.4A4.527,4.527,0,0,1,0,21.31V16.5H2.2V21.31a2.263,2.263,0,0,0,2.2,2.317h5.617v2.315ZM25.972,8.571h-2.2V4.632a2.263,2.263,0,0,0-2.2-2.316h-5.08V0h5.08a4.527,4.527,0,0,1,4.4,4.632V8.57ZM2.2,8.571H0V4.632A4.527,4.527,0,0,1,4.4,0h5.617V2.317H4.4A2.263,2.263,0,0,0,2.2,4.632V8.57Z" transform="translate(-1586.5 1532.942)" fill="#fff"/>
      <path id="Fill_1-2" data-name="Fill 1" d="M11.315,11.01a2.735,2.735,0,0,1-1.968.892c-.052,0-.106,0-.16,0a6.285,6.285,0,0,1-2.774-.978A14.441,14.441,0,0,1,3.747,8.8,21.26,21.26,0,0,1,1.622,6.357,11.722,11.722,0,0,1,.43,4.454,4,4,0,0,1,.064,2.032,3.18,3.18,0,0,1,1.3.247,1.057,1.057,0,0,1,1.944,0C2.66,0,3.381.981,3.86,1.629c.136.184.265.358.38.5a1.135,1.135,0,0,1,.269.953.984.984,0,0,1-.463.681.913.913,0,0,0-.493.563c-.13.439.044,1.019.585,1.934l.011.019A4.874,4.874,0,0,0,7.044,8.387l.03,0H7.1a1.8,1.8,0,0,0,1.3-.827.368.368,0,0,1,.2-.035,3.694,3.694,0,0,1,1.926.837l.017.013C11.96,9.389,12,9.817,12,9.863A2.369,2.369,0,0,1,11.315,11.01Z" transform="translate(-1579.5 1539.942)" fill="#fff"/>
    </g>
  </g>
</svg>
